<svg width="17" height="13" viewBox="0 0 17 13" fill="none" xmlns="http://www.w3.org/2000/svg">
<path d="M16.0848 5.99897L11.1264 1.04063C10.9929 0.911606 10.8139 0.84021 10.6282 0.841824C10.4425 0.843438 10.2648 0.917932 10.1335 1.04926C10.0022 1.18059 9.92766 1.35825 9.92605 1.54398C9.92444 1.7297 9.99583 1.90862 10.1249 2.04222L13.8741 5.79143H1.41732C1.22946 5.79143 1.04929 5.86605 0.91645 5.99889C0.783612 6.13173 0.708984 6.3119 0.708984 6.49976C0.708984 6.68762 0.783612 6.86779 0.91645 7.00063C1.04929 7.13347 1.22946 7.20809 1.41732 7.20809H13.8741L10.1249 10.9573C10.0572 11.0226 10.0032 11.1008 9.96612 11.1872C9.929 11.2736 9.90946 11.3666 9.90864 11.4606C9.90782 11.5547 9.92575 11.648 9.96136 11.735C9.99698 11.8221 10.0496 11.9012 10.1161 11.9677C10.1826 12.0342 10.2617 12.0868 10.3487 12.1224C10.4358 12.158 10.529 12.1759 10.6231 12.1751C10.7172 12.1743 10.8101 12.1547 10.8965 12.1176C10.9829 12.0805 11.0611 12.0265 11.1264 11.9589L16.0848 7.00055C16.2176 6.86772 16.2922 6.68758 16.2922 6.49976C16.2922 6.31194 16.2176 6.1318 16.0848 5.99897Z" fill="#121826"/>
</svg>
